<svg xmlns="http://www.w3.org/2000/svg" viewBox="0 0 200 200" width="100%" height="100%">
  <defs>
    <!-- Soft pastel gradient for background -->
    <linearGradient id="pastel-grad" x1="0%" y1="0%" x2="100%" y2="100%">
      <stop offset="0%" stop-color="#FDF2F8" />
      <stop offset="100%" stop-color="#F3E8FF" />
    </linearGradient>
  </defs>
  
  <!-- Soft pastel circle background with cute border -->
  <circle cx="100" cy="100" r="95" fill="url(#pastel-grad)" stroke="#F5D0FE" stroke-width="3" />
  
  <!-- Head group tilted slightly for cute chibi look -->
  <g transform="rotate(-4, 100, 110)">
    
    <!-- White cozy hoodie hood (Back) -->
    <circle cx="100" cy="110" r="54" fill="#FFFFFF" stroke="#F1F5F9" stroke-width="1.5" />
    
    <!-- Inner hood dark shadow -->
    <circle cx="100" cy="111" r="46" fill="#2E1C4E" />
    
    <!-- Face base (extra chubby, soft skin tone) -->
    <ellipse cx="100" cy="118" rx="45" ry="35" fill="#FFF1F2" />
    
    <!-- Soft rosy blush cheeks -->
    <ellipse cx="68" cy="122" rx="9" ry="5" fill="#FDA4AF" opacity="0.6" />
    <ellipse cx="132" cy="122" rx="9" ry="5" fill="#FDA4AF" opacity="0.6" />
    
    <!-- Tiny cute off-center smile -->
    <path d="M 95 125 Q 98 128 102 125" stroke="#475569" stroke-width="2.2" fill="none" stroke-linecap="round" />
    
    <!-- YUNI LILAC HAIR (Soft pastel lavender #DEC9F6) -->
    <!-- Side hair bangs framing the cheeks (cozy bob cut) -->
    <path d="M 57 100 Q 51 120 56 135 Q 67 122 66 110 Z" fill="#DEC9F6" />
    <path d="M 143 100 Q 149 120 144 135 Q 133 122 134 110 Z" fill="#DEC9F6" />
    
    <!-- Forehead Bangs (Cozy flat cut with two small V splits) -->
    <path d="M 56 98 
             Q 100 80 144 98 
             L 142 106
             Q 125 106 122 101
             L 118 106
             Q 102 106 100 101
             L 97 106
             Q 76 106 58 106 Z" fill="#DEC9F6" />
             
    <!-- Small bat-wing hair clips (horns) -->
    <path d="M 48 94 L 36 86 C 32 93, 40 101, 46 100 Z" fill="#3B2667" />
    <path d="M 152 94 L 164 86 C 168 93, 160 101, 154 100 Z" fill="#3B2667" />

    <!-- Tilted Deal-With-It Glasses -->
    <g transform="translate(54, 94) scale(1.15)">
      <!-- Left lens -->
      <rect x="0" y="8" width="28" height="11" rx="1" fill="#1E1B4B" />
      <rect x="4" y="19" width="20" height="3" rx="1" fill="#1E1B4B" />
      <rect x="8" y="22" width="12" height="3" rx="1" fill="#1E1B4B" />
      <!-- White pixel highlights -->
      <rect x="4" y="11" width="3" height="3" fill="#FFFFFF" />
      <rect x="12" y="15" width="3" height="3" fill="#FFFFFF" />
      
      <!-- Bridge -->
      <rect x="28" y="11" width="12" height="3" fill="#1E1B4B" />
      
      <!-- Right lens -->
      <rect x="40" y="8" width="28" height="11" rx="1" fill="#1E1B4B" />
      <rect x="44" y="19" width="20" height="3" rx="1" fill="#1E1B4B" />
      <rect x="48" y="22" width="12" height="3" rx="1" fill="#1E1B4B" />
      <!-- White pixel highlights -->
      <rect x="44" y="11" width="3" height="3" fill="#FFFFFF" />
      <rect x="52" y="15" width="3" height="3" fill="#FFFFFF" />
      
      <!-- Handles -->
      <rect x="-8" y="8" width="8" height="3" fill="#1E1B4B" />
      <rect x="68" y="8" width="8" height="3" fill="#1E1B4B" />
    </g>
  </g>
</svg>